# xmcd CD database file
#
# Track frame offsets:
#	150
#	34496
#	67425
#	94942
#	117170
#	159336
#	180520
#	210834
#	241945
#	274048
#	304968
#	327241
#
# Disc length: 4667 seconds
#
# Revision: 0
# Processed by: cddbd v1.5.1PL0 Copyright (c) Steve Scherf et al.
# Submitted via: CDex 1.50beta10
#
DISCID=a812390c
DTITLE=Irv Williams - That's All?
DYEAR=2004
DGENRE=Jazz
TTITLE0=Blues
TTITLE1=Crazy Rhythm
TTITLE2=Ghost Of A Chance
TTITLE3=Heaven
TTITLE4=Hello Young Lovers
TTITLE5=Here's To Life
TTITLE6=Soul Eyes
TTITLE7=That's All
TTITLE8=The Man I Love
TTITLE9=The Very Thought Of You
TTITLE10=Very Early
TTITLE11=What's New
EXTD=YEAR: 2004
EXTT0=
EXTT1=
EXTT2=
EXTT3=
EXTT4=
EXTT5=
EXTT6=
EXTT7=
EXTT8=
EXTT9=
EXTT10=
EXTT11=
PLAYORDER=
